<svg width="23" height="24" viewBox="0 0 23 24" fill="none" xmlns="http://www.w3.org/2000/svg">
<g clip-path="url(#clip0_13048_74886)">
<path d="M3.36534 23.6217H19.6356C20.9175 23.6217 21.9599 22.5792 21.9599 21.2973V3.8649C21.9599 2.58304 20.9175 1.54058 19.6356 1.54058H17.3113C17.3113 1.23236 17.1888 0.936755 16.9709 0.718807C16.7529 0.50086 16.4573 0.378418 16.1491 0.378418H6.85183C6.5436 0.378418 6.248 0.50086 6.03005 0.718807C5.81211 0.936755 5.68966 1.23236 5.68966 1.54058H3.36534C2.08347 1.54058 1.04102 2.58304 1.04102 3.8649V21.2973C1.04102 22.5792 2.08347 23.6217 3.36534 23.6217ZM3.36534 3.8649H5.68966V6.18923H17.3113V3.8649H19.6356V21.2973H3.36534V3.8649Z" fill="#C7C7C7"/>
<path d="M10.3364 13.8433L8.25267 11.7595L6.60938 13.4028L10.3364 17.1299L16.3878 11.0785L14.7445 9.43518L10.3364 13.8433Z" fill="#C7C7C7"/>
</g>
<defs>
<clipPath id="clip0_13048_74886">
<rect width="21.5" height="23.2432" fill="white" transform="translate(0.75 0.378418)"/>
</clipPath>
</defs>
</svg>
