<svg width="27" height="24" viewBox="0 0 27 24" fill="none" xmlns="http://www.w3.org/2000/svg">
<g clip-path="url(#clip0_13048_51047)">
<path d="M24.5917 8.39348C24.961 9.52784 25.1606 10.7388 25.1606 11.9963C25.1606 18.4189 19.9541 23.6254 13.5315 23.6254C7.10889 23.6254 1.90234 18.4189 1.90234 11.9963C1.90234 5.57373 7.10889 0.367188 13.5315 0.367188C14.7955 0.367188 16.0126 0.568889 17.152 0.941851L15.6309 2.4629C15.5467 2.54709 15.4701 2.63746 15.4015 2.73295C14.7971 2.61159 14.1717 2.54791 13.5315 2.54791C8.31327 2.54791 4.08306 6.77811 4.08306 11.9963C4.08306 17.2145 8.31327 21.4447 13.5315 21.4447C18.7497 21.4447 22.9799 17.2145 22.9799 11.9963C22.9799 11.3623 22.9174 10.7428 22.7983 10.1438C22.8969 10.0737 22.9901 9.99511 23.0767 9.90848L24.5917 8.39348ZM20.6596 10.5472C20.755 11.0168 20.805 11.5029 20.805 12.0007C20.805 16.0153 17.5505 19.2698 13.5359 19.2698C9.52129 19.2698 6.26681 16.0153 6.26681 12.0007C6.26681 7.98609 9.52129 4.73161 13.5359 4.73161C14.0346 4.73161 14.5218 4.78184 14.9922 4.87753L14.9925 7.12386C14.5311 6.98624 14.042 6.91233 13.5359 6.91233C10.7257 6.91233 8.44753 9.19046 8.44753 12.0007C8.44753 14.8109 10.7257 17.0891 13.5359 17.0891C16.3461 17.0891 18.6243 14.8109 18.6243 12.0007C18.6243 11.4956 18.5507 11.0077 18.4136 10.5472H20.6596ZM13.5359 14.1814C14.7403 14.1814 15.7166 13.2051 15.7166 12.0007C15.7166 11.8061 15.6911 11.6175 15.6432 11.438L17.944 9.13716C17.9584 9.12277 17.9724 9.10807 17.9858 9.09308H21.5351C21.7279 9.09308 21.9128 9.01649 22.049 8.88018L24.9566 5.97256C25.1645 5.76466 25.2268 5.452 25.1142 5.18039C25.0017 4.90876 24.7367 4.73165 24.4427 4.73164L20.8079 4.73157V1.097C20.8079 0.802997 20.6308 0.537953 20.3591 0.425442C20.0875 0.312917 19.7748 0.375111 19.5669 0.582991L16.6591 3.49063C16.5228 3.62697 16.4462 3.8119 16.4463 4.00472L16.4466 7.55301C16.4315 7.56658 16.4167 7.58062 16.4021 7.59517L14.1028 9.89442C13.9221 9.84588 13.732 9.82 13.5359 9.82C12.3315 9.82 11.3552 10.7963 11.3552 12.0007C11.3552 13.2051 12.3315 14.1814 13.5359 14.1814Z" fill="#C7C7C7"/>
</g>
<defs>
<clipPath id="clip0_13048_51047">
<rect width="25.1113" height="23.7897" fill="white" transform="translate(0.984375 0.105469)"/>
</clipPath>
</defs>
</svg>
