<svg width="23" height="24" viewBox="0 0 23 24" fill="none" xmlns="http://www.w3.org/2000/svg">
<path d="M12.5143 0.941962C11.954 0.381651 11.0455 0.381651 10.4852 0.941962L0.441718 10.9854C-0.118593 11.5458 -0.118593 12.4542 0.441718 13.0145C1.00204 13.5748 1.91049 13.5748 2.47082 13.0145L2.89105 12.5943V22.0435C2.89105 22.8359 3.53343 23.4783 4.32583 23.4783H7.1954C7.9878 23.4783 8.63018 22.8359 8.63018 22.0435V19.1739C8.63018 18.3815 9.27256 17.7391 10.065 17.7391H12.9345C13.727 17.7391 14.3693 18.3815 14.3693 19.1739V22.0435C14.3693 22.8359 15.0117 23.4783 15.8041 23.4783H18.6737C19.4661 23.4783 20.1084 22.8359 20.1084 22.0435V12.5943L20.5287 13.0145C21.089 13.5748 21.9975 13.5748 22.5578 13.0145C23.118 12.4542 23.118 11.5458 22.5578 10.9854L12.5143 0.941962Z" fill="#C7C7C7"/>
</svg>
