<svg width="25" height="24" viewBox="0 0 25 24" fill="none" xmlns="http://www.w3.org/2000/svg">
<path opacity="0.5" d="M22.5 12C22.5 17.5228 18.0228 22 12.5 22C6.97715 22 2.5 17.5228 2.5 12C2.5 6.47715 6.97715 2 12.5 2C18.0228 2 22.5 6.47715 22.5 12Z" fill="#C7C7C7"/>
<path d="M17.307 19.0112C15.9398 19.9504 14.2841 20.5 12.5 20.5C10.7159 20.5 9.06023 19.9503 7.693 19.0111C7.08915 18.5963 6.83109 17.8062 7.18219 17.1632C7.91001 15.8302 9.40973 15 12.5 15C15.5903 15 17.09 15.8303 17.8178 17.1632C18.1689 17.8062 17.9108 18.5964 17.307 19.0112Z" fill="#C7C7C7"/>
<path d="M12.5 12C14.1569 12 15.5 10.6569 15.5 9C15.5 7.34315 14.1569 6 12.5 6C10.8432 6 9.50004 7.34315 9.50004 9C9.50004 10.6569 10.8432 12 12.5 12Z" fill="#C7C7C7"/>
</svg>
